<svg xmlns="http://www.w3.org/2000/svg" x="0px" y="0px" width="100" height="100" viewBox="0 0 64 64">
<circle cx="32" cy="32" r="23" fill="#9c34c2"></circle><ellipse cx="32" cy="61" opacity=".3" rx="19" ry="3"></ellipse><path fill="#fff" d="M32,14c2.577,0,4.674-1.957,4.946-4.461C35.352,9.19,33.699,9,32,9 C19.297,9,9,19.297,9,32c0,1.699,0.19,3.352,0.539,4.946C12.044,36.674,14,34.577,14,32C14,22.075,22.075,14,32,14z" opacity=".3"></path><path fill="none" stroke="#fff" stroke-linecap="round" stroke-linejoin="round" stroke-miterlimit="10" stroke-width="3" d="M15.047,23.427c1.878-3.699,4.932-6.705,8.666-8.522"></path><path d="M54.461,27.054C51.956,27.326,50,29.423,50,32c0,9.925-8.075,18-18,18 c-2.577,0-4.674,1.957-4.946,4.461C28.648,54.81,30.301,55,32,55c12.703,0,23-10.297,23-23C55,30.301,54.81,28.648,54.461,27.054z" opacity=".15"></path><g><path fill="#a0effe" d="M21.321,27.071h3.286c0.454,0,0.821,0.368,0.821,0.821v14.786c0,0.454-0.368,0.821-0.821,0.821 h-3.286c-0.454,0-0.821-0.368-0.821-0.821V27.893C20.5,27.439,20.868,27.071,21.321,27.071z"></path><path fill="#a0effe" d="M22.95,25.429h-0.028c-1.471,0-2.422-1.096-2.422-2.465c0-1.399,0.981-2.463,2.478-2.463 c1.499,0,2.423,1.065,2.45,2.463C25.429,24.331,24.477,25.429,22.95,25.429z"></path><path fill="#a0effe" d="M39.393,43.5c-0.454,0-0.821-0.368-0.821-0.821V34.78c0-2.106-1.174-3.544-3.059-3.544 c-1.438,0-2.217,0.97-2.594,1.907c-0.138,0.335-0.097,1.263-0.097,1.732v7.804c0,0.454-0.368,0.821-0.821,0.821h-3.286 c-0.454,0-0.821-0.368-0.821-0.821V27.893c0-0.454,0.368-0.821,0.821-0.821H32c0.454,0,0.821,0.368,0.821,0.821v1.643 c0.691-1.07,1.91-2.469,4.677-2.469c3.429,0,6,2.298,6,7.112l0.001,8.499c0,0.454-0.368,0.822-0.821,0.822H39.393z"></path></g>
</svg>